<svg width="49" height="49" viewBox="0 0 49 49" fill="none" xmlns="http://www.w3.org/2000/svg">
<path d="M48 24.5C48 29.9369 46.1148 35.2055 42.6657 39.4083C39.2166 43.611 34.417 46.4878 29.0846 47.5485C23.7522 48.6091 18.217 47.7881 13.4221 45.2252C8.62727 42.6623 4.86939 38.5161 2.78879 33.4931C0.708201 28.4701 0.43363 22.8811 2.01186 17.6783C3.5901 12.4756 6.92348 7.98103 11.4441 4.96048C15.9646 1.93993 21.3927 0.58027 26.8034 1.11317C32.214 1.64608 37.2725 4.03857 41.117 7.883L38.5485 10.4515C35.2983 7.2013 31.0217 5.17862 26.4473 4.72808C21.873 4.27755 17.2839 5.42705 13.4621 7.98071C9.64029 10.5344 6.82214 14.3342 5.48785 18.7328C4.15357 23.1313 4.3857 27.8564 6.14469 32.103C7.90369 36.3496 11.0807 39.8549 15.1344 42.0217C19.1882 44.1884 23.8678 44.8826 28.3759 43.9859C32.8841 43.0891 36.9419 40.657 39.8578 37.1039C42.7738 33.5508 44.3676 29.0965 44.3676 24.5H48Z" fill="white"/>
<path d="M16.0158 39.8059C12.4747 37.843 9.72377 34.7131 8.2317 30.9493C6.73962 27.1856 6.59874 23.0209 7.83305 19.1649C9.06736 15.3089 11.6005 12.0002 15.0008 9.80253C18.4012 7.60485 22.4583 6.65418 26.481 7.11251C30.5037 7.57084 34.2431 9.4098 37.0619 12.3161C39.8807 15.2223 41.6046 19.0161 41.9399 23.0509C42.2751 27.0857 41.201 31.1119 38.9005 34.4436C36.6 37.7752 33.2155 40.2061 29.3236 41.3221L28.578 38.7219C31.8684 37.7784 34.7297 35.7233 36.6746 32.9066C38.6195 30.0899 39.5276 26.686 39.2442 23.2749C38.9607 19.8637 37.5033 16.6564 35.1202 14.1993C32.7371 11.7423 29.5757 10.1876 26.1748 9.8001C22.7739 9.41262 19.3439 10.2163 16.4691 12.0743C13.5944 13.9323 11.4528 16.7296 10.4093 19.9895C9.36574 23.2495 9.48485 26.7704 10.7463 29.9524C12.0077 33.1344 14.3335 35.7806 17.3272 37.44L16.0158 39.8059Z" fill="white"/>
<path d="M24.5 12C27.3919 12 30.1944 13.0027 32.4299 14.8374C34.6654 16.672 36.1956 19.225 36.7598 22.0614C37.324 24.8977 36.8872 27.842 35.524 30.3925C34.1607 32.9429 31.9553 34.9418 29.2835 36.0485C26.6117 37.1552 23.6388 37.3012 20.8714 36.4618C18.104 35.6223 15.7133 33.8492 14.1066 31.4446C12.4999 29.0401 11.7767 26.1528 12.0601 23.2748C12.3436 20.3968 13.6162 17.7061 15.6611 15.6612L17.0273 17.0274C15.2985 18.7562 14.2226 21.031 13.983 23.4642C13.7433 25.8973 14.3548 28.3383 15.7131 30.3712C17.0714 32.4041 19.0926 33.9031 21.4323 34.6128C23.7719 35.3225 26.2853 35.1991 28.5441 34.2634C30.8029 33.3278 32.6675 31.6379 33.82 29.4817C34.9725 27.3254 35.3418 24.8363 34.8648 22.4383C34.3878 20.0404 33.0941 17.882 31.2041 16.3309C29.3142 14.7799 26.9449 13.9321 24.5 13.9321L24.5 12Z" fill="white"/>
<path d="M17.03 20.4442C17.9683 18.7159 19.4769 17.3666 21.2986 16.6259C23.1203 15.8853 25.1425 15.7992 27.0205 16.3823C28.8986 16.9655 30.5164 18.1818 31.5982 19.824C32.68 21.4662 33.1589 23.4328 32.9534 25.3885C32.7478 27.3442 31.8705 29.1682 30.4709 30.5496C29.0713 31.931 27.236 32.7844 25.2777 32.9643C23.3194 33.1443 21.3593 32.6397 19.7314 31.5364C18.1035 30.4332 16.9085 28.7997 16.35 26.9141L17.7272 26.5062C18.1913 28.0731 19.1844 29.4306 20.5372 30.3474C21.89 31.2642 23.5189 31.6836 25.1463 31.534C26.7736 31.3845 28.2988 30.6753 29.4619 29.5273C30.625 28.3794 31.3541 26.8636 31.5249 25.2384C31.6957 23.6131 31.2977 21.9789 30.3987 20.6142C29.4997 19.2495 28.1553 18.2387 26.5946 17.7541C25.0339 17.2695 23.3534 17.341 21.8396 17.9565C20.3257 18.572 19.072 19.6933 18.2923 21.1295L17.03 20.4442Z" fill="white"/>
<path d="M28.2196 27.0327C27.6337 27.8933 26.7675 28.5241 25.7686 28.8176C24.7698 29.1111 23.7 29.0492 22.7417 28.6424C21.7834 28.2356 20.9957 27.5091 20.513 26.5867C20.0302 25.6643 19.8823 24.603 20.0943 23.5837C20.3063 22.5644 20.8652 21.6502 21.6757 20.9968C22.4862 20.3434 23.4982 19.9912 24.5392 20.0003C25.5803 20.0094 26.586 20.3791 27.385 21.0466C28.184 21.7141 28.7268 22.6379 28.921 23.6607L28.0934 23.8179C27.9356 22.9865 27.4943 22.2356 26.8449 21.6931C26.1955 21.1506 25.3781 20.85 24.5319 20.8426C23.6857 20.8353 22.8632 21.1215 22.2044 21.6526C21.5456 22.1837 21.0913 22.9268 20.919 23.7553C20.7467 24.5837 20.867 25.4463 21.2593 26.1961C21.6517 26.9458 22.2919 27.5363 23.0708 27.867C23.8498 28.1976 24.7193 28.2479 25.5311 28.0094C26.343 27.7708 27.0471 27.2581 27.5233 26.5586L28.2196 27.0327Z" fill="white"/>
<path d="M23.7069 22.1292C24.2554 21.9457 24.8505 21.9581 25.3909 22.1642C25.9314 22.3702 26.3836 22.7574 26.6706 23.2595C26.9576 23.7617 27.0616 24.3478 26.9649 24.918C26.8682 25.4883 26.5768 26.0074 26.1403 26.3868C25.7037 26.7663 25.1492 26.9826 24.571 26.999C23.9929 27.0154 23.4269 26.8309 22.9696 26.4768C22.5122 26.1227 22.1918 25.621 22.063 25.0571C21.9341 24.4933 22.0047 23.9022 22.2628 23.3846L23.1395 23.8217C22.9826 24.1365 22.9396 24.4959 23.018 24.8388C23.0964 25.1817 23.2912 25.4868 23.5693 25.7022C23.8475 25.9175 24.1916 26.0297 24.5432 26.0198C24.8948 26.0098 25.2321 25.8782 25.4975 25.6475C25.763 25.4167 25.9402 25.101 25.999 24.7543C26.0579 24.4075 25.9946 24.051 25.8201 23.7456C25.6455 23.4403 25.3705 23.2048 25.0419 23.0795C24.7132 22.9542 24.3513 22.9467 24.0177 23.0583L23.7069 22.1292Z" fill="white"/>
<circle cx="24.5" cy="24.5" r="0.5" transform="rotate(-180 24.5 24.5)" fill="white"/>
</svg>
